<mxfile host="app.diagrams.net" agent="Mozilla/5.0 (Windows NT 10.0; Win64; x64) AppleWebKit/537.36 (KHTML, like Gecko) Chrome/131.0.0.0 Safari/537.36" version="25.0.3">
  <diagram name="第 1 页" id="1L1FG2UBr6ZNG3qyeJEN">
    <mxGraphModel dx="2109" dy="940" grid="1" gridSize="10" guides="1" tooltips="1" connect="1" arrows="1" fold="1" page="0" pageScale="1" pageWidth="827" pageHeight="1169" math="0" shadow="0">
      <root>
        <mxCell id="0" />
        <mxCell id="1" parent="0" />
        <mxCell id="LSLZHL2r1kMPk4kIhxWc-1" value="taint eviction" style="shape=umlFrame;whiteSpace=wrap;html=1;width=120;height=30;boundedLbl=1;verticalAlign=middle;align=left;spacingLeft=5;fillColor=#f5f5f5;fontColor=#333333;strokeColor=#666666;" vertex="1" parent="1">
          <mxGeometry x="-308" y="156" width="618" height="590" as="geometry" />
        </mxCell>
        <mxCell id="LSLZHL2r1kMPk4kIhxWc-5" value="handleNodeUpdate" style="shape=umlLifeline;perimeter=lifelinePerimeter;whiteSpace=wrap;html=1;container=0;collapsible=0;recursiveResize=0;outlineConnect=0;fillColor=#ffe6cc;strokeColor=#d79b00;" vertex="1" parent="1">
          <mxGeometry x="-87" y="206" width="118" height="520" as="geometry" />
        </mxCell>
        <mxCell id="LSLZHL2r1kMPk4kIhxWc-36" value="" style="html=1;verticalAlign=bottom;endArrow=block;entryX=0.857;entryY=0.228;rounded=0;entryDx=0;entryDy=0;entryPerimeter=0;" edge="1" parent="1" source="LSLZHL2r1kMPk4kIhxWc-15" target="LSLZHL2r1kMPk4kIhxWc-37">
          <mxGeometry relative="1" as="geometry">
            <mxPoint x="648" y="540" as="sourcePoint" />
            <mxPoint x="198" y="540" as="targetPoint" />
          </mxGeometry>
        </mxCell>
        <mxCell id="LSLZHL2r1kMPk4kIhxWc-11" value="" style="html=1;verticalAlign=bottom;endArrow=block;entryX=0;entryY=0;rounded=0;" edge="1" parent="1" source="LSLZHL2r1kMPk4kIhxWc-4" target="LSLZHL2r1kMPk4kIhxWc-6">
          <mxGeometry relative="1" as="geometry">
            <mxPoint x="-103" y="286" as="sourcePoint" />
          </mxGeometry>
        </mxCell>
        <mxCell id="LSLZHL2r1kMPk4kIhxWc-12" value="handlePodUpdate" style="shape=umlLifeline;perimeter=lifelinePerimeter;whiteSpace=wrap;html=1;container=1;collapsible=0;recursiveResize=0;outlineConnect=0;fillColor=#dae8fc;strokeColor=#6c8ebf;" vertex="1" parent="1">
          <mxGeometry x="142" y="206" width="100" height="520" as="geometry" />
        </mxCell>
        <mxCell id="LSLZHL2r1kMPk4kIhxWc-13" value="" style="html=1;points=[];perimeter=orthogonalPerimeter;fillColor=#dae8fc;strokeColor=#6c8ebf;" vertex="1" parent="LSLZHL2r1kMPk4kIhxWc-12">
          <mxGeometry x="45" y="89" width="10" height="355" as="geometry" />
        </mxCell>
        <mxCell id="LSLZHL2r1kMPk4kIhxWc-35" value="" style="html=1;verticalAlign=bottom;endArrow=block;rounded=0;exitX=0.171;exitY=0.149;exitDx=0;exitDy=0;exitPerimeter=0;" edge="1" parent="LSLZHL2r1kMPk4kIhxWc-12" target="LSLZHL2r1kMPk4kIhxWc-4">
          <mxGeometry relative="1" as="geometry">
            <mxPoint x="45" y="284" as="sourcePoint" />
            <mxPoint x="-167" y="284" as="targetPoint" />
          </mxGeometry>
        </mxCell>
        <mxCell id="LSLZHL2r1kMPk4kIhxWc-19" value="" style="html=1;verticalAlign=bottom;endArrow=block;entryX=1.086;entryY=0.077;rounded=0;entryDx=0;entryDy=0;entryPerimeter=0;" edge="1" parent="1" target="LSLZHL2r1kMPk4kIhxWc-13">
          <mxGeometry relative="1" as="geometry">
            <mxPoint x="440" y="322" as="sourcePoint" />
          </mxGeometry>
        </mxCell>
        <mxCell id="LSLZHL2r1kMPk4kIhxWc-26" value="Timed Worker Queue" style="shape=umlLifeline;perimeter=lifelinePerimeter;whiteSpace=wrap;html=1;container=1;collapsible=0;recursiveResize=0;outlineConnect=0;fillColor=#f8cecc;strokeColor=#b85450;" vertex="1" parent="1">
          <mxGeometry x="-258" y="206" width="100" height="534" as="geometry" />
        </mxCell>
        <mxCell id="LSLZHL2r1kMPk4kIhxWc-43" value="" style="endArrow=classic;html=1;rounded=0;" edge="1" parent="LSLZHL2r1kMPk4kIhxWc-26">
          <mxGeometry width="50" height="50" relative="1" as="geometry">
            <mxPoint x="55" y="324" as="sourcePoint" />
            <mxPoint x="55" y="369" as="targetPoint" />
            <Array as="points">
              <mxPoint x="95" y="324" />
              <mxPoint x="95" y="369" />
            </Array>
          </mxGeometry>
        </mxCell>
        <mxCell id="LSLZHL2r1kMPk4kIhxWc-44" value="Delete Pod" style="edgeLabel;html=1;align=center;verticalAlign=middle;resizable=0;points=[];" vertex="1" connectable="0" parent="LSLZHL2r1kMPk4kIhxWc-43">
          <mxGeometry x="-0.1863" y="1" relative="1" as="geometry">
            <mxPoint as="offset" />
          </mxGeometry>
        </mxCell>
        <mxCell id="LSLZHL2r1kMPk4kIhxWc-45" value="" style="endArrow=classic;html=1;rounded=0;" edge="1" parent="LSLZHL2r1kMPk4kIhxWc-26">
          <mxGeometry width="50" height="50" relative="1" as="geometry">
            <mxPoint x="55" y="438" as="sourcePoint" />
            <mxPoint x="55" y="483" as="targetPoint" />
            <Array as="points">
              <mxPoint x="95" y="438" />
              <mxPoint x="95" y="483" />
            </Array>
          </mxGeometry>
        </mxCell>
        <mxCell id="LSLZHL2r1kMPk4kIhxWc-46" value="Delete Pod" style="edgeLabel;html=1;align=center;verticalAlign=middle;resizable=0;points=[];" vertex="1" connectable="0" parent="LSLZHL2r1kMPk4kIhxWc-45">
          <mxGeometry x="-0.1863" y="1" relative="1" as="geometry">
            <mxPoint as="offset" />
          </mxGeometry>
        </mxCell>
        <mxCell id="LSLZHL2r1kMPk4kIhxWc-4" value="" style="html=1;points=[];perimeter=orthogonalPerimeter;fillColor=#f8cecc;strokeColor=#b85450;" vertex="1" parent="1">
          <mxGeometry x="-213" y="266" width="10" height="444" as="geometry" />
        </mxCell>
        <mxCell id="LSLZHL2r1kMPk4kIhxWc-15" value="" style="html=1;points=[];perimeter=orthogonalPerimeter;fillColor=#e1d5e7;strokeColor=#9673a6;" vertex="1" parent="1">
          <mxGeometry x="440" y="266" width="10" height="474" as="geometry" />
        </mxCell>
        <mxCell id="LSLZHL2r1kMPk4kIhxWc-6" value="" style="html=1;points=[];perimeter=orthogonalPerimeter;fillColor=#ffe6cc;strokeColor=#d79b00;" vertex="1" parent="1">
          <mxGeometry x="-33" y="286" width="10" height="134" as="geometry" />
        </mxCell>
        <mxCell id="LSLZHL2r1kMPk4kIhxWc-31" value="" style="html=1;verticalAlign=bottom;endArrow=block;entryX=1.2;entryY=0.463;rounded=0;entryDx=0;entryDy=0;entryPerimeter=0;exitX=0.171;exitY=0.149;exitDx=0;exitDy=0;exitPerimeter=0;" edge="1" parent="1" source="LSLZHL2r1kMPk4kIhxWc-13" target="LSLZHL2r1kMPk4kIhxWc-6">
          <mxGeometry relative="1" as="geometry">
            <mxPoint x="658" y="332" as="sourcePoint" />
            <mxPoint x="208" y="332" as="targetPoint" />
          </mxGeometry>
        </mxCell>
        <mxCell id="LSLZHL2r1kMPk4kIhxWc-32" value="" style="html=1;verticalAlign=bottom;endArrow=block;entryX=1.029;entryY=0.163;rounded=0;entryDx=0;entryDy=0;entryPerimeter=0;exitX=0.171;exitY=0.149;exitDx=0;exitDy=0;exitPerimeter=0;" edge="1" parent="1">
          <mxGeometry relative="1" as="geometry">
            <mxPoint x="-23" y="370" as="sourcePoint" />
            <mxPoint x="189" y="370" as="targetPoint" />
          </mxGeometry>
        </mxCell>
        <mxCell id="LSLZHL2r1kMPk4kIhxWc-33" value="" style="endArrow=classic;html=1;rounded=0;" edge="1" parent="1">
          <mxGeometry width="50" height="50" relative="1" as="geometry">
            <mxPoint x="200" y="415" as="sourcePoint" />
            <mxPoint x="200" y="460" as="targetPoint" />
            <Array as="points">
              <mxPoint x="240" y="415" />
              <mxPoint x="240" y="460" />
            </Array>
          </mxGeometry>
        </mxCell>
        <mxCell id="LSLZHL2r1kMPk4kIhxWc-34" value="Process Pod" style="edgeLabel;html=1;align=center;verticalAlign=middle;resizable=0;points=[];" vertex="1" connectable="0" parent="LSLZHL2r1kMPk4kIhxWc-33">
          <mxGeometry x="-0.1863" y="1" relative="1" as="geometry">
            <mxPoint as="offset" />
          </mxGeometry>
        </mxCell>
        <mxCell id="LSLZHL2r1kMPk4kIhxWc-37" value="" style="html=1;points=[];perimeter=orthogonalPerimeter;fillColor=#ffe6cc;strokeColor=#d79b00;" vertex="1" parent="1">
          <mxGeometry x="-33" y="510" width="10" height="134" as="geometry" />
        </mxCell>
        <mxCell id="LSLZHL2r1kMPk4kIhxWc-39" value="Node Update" style="text;html=1;align=center;verticalAlign=middle;resizable=0;points=[];autosize=1;strokeColor=none;fillColor=none;" vertex="1" parent="1">
          <mxGeometry x="320" y="510" width="90" height="30" as="geometry" />
        </mxCell>
        <mxCell id="LSLZHL2r1kMPk4kIhxWc-40" value="" style="endArrow=classic;html=1;rounded=0;" edge="1" parent="1">
          <mxGeometry width="50" height="50" relative="1" as="geometry">
            <mxPoint x="-23" y="560" as="sourcePoint" />
            <mxPoint x="-23" y="605" as="targetPoint" />
            <Array as="points">
              <mxPoint x="17" y="560" />
              <mxPoint x="17" y="605" />
            </Array>
          </mxGeometry>
        </mxCell>
        <mxCell id="LSLZHL2r1kMPk4kIhxWc-41" value="Process Node" style="edgeLabel;html=1;align=center;verticalAlign=middle;resizable=0;points=[];" vertex="1" connectable="0" parent="LSLZHL2r1kMPk4kIhxWc-40">
          <mxGeometry x="-0.1863" y="1" relative="1" as="geometry">
            <mxPoint as="offset" />
          </mxGeometry>
        </mxCell>
        <mxCell id="LSLZHL2r1kMPk4kIhxWc-42" value="" style="html=1;verticalAlign=bottom;endArrow=block;entryX=1.2;entryY=0.534;rounded=0;entryDx=0;entryDy=0;entryPerimeter=0;exitX=0.057;exitY=0.817;exitDx=0;exitDy=0;exitPerimeter=0;" edge="1" parent="1" source="LSLZHL2r1kMPk4kIhxWc-37">
          <mxGeometry relative="1" as="geometry">
            <mxPoint x="-40" y="620" as="sourcePoint" />
            <mxPoint x="-203" y="620" as="targetPoint" />
          </mxGeometry>
        </mxCell>
        <mxCell id="LSLZHL2r1kMPk4kIhxWc-48" value="Kube-apiserver" style="rounded=1;whiteSpace=wrap;html=1;" vertex="1" parent="1">
          <mxGeometry x="395" y="200" width="100" height="50" as="geometry" />
        </mxCell>
        <mxCell id="LSLZHL2r1kMPk4kIhxWc-49" value="node lifecycle" style="shape=umlFrame;whiteSpace=wrap;html=1;width=120;height=30;boundedLbl=1;verticalAlign=middle;align=left;spacingLeft=5;fillColor=#f5f5f5;fontColor=#333333;strokeColor=#666666;" vertex="1" parent="1">
          <mxGeometry x="540" y="156" width="780" height="590" as="geometry" />
        </mxCell>
        <mxCell id="LSLZHL2r1kMPk4kIhxWc-50" value="doPodProcessingWorker" style="shape=umlLifeline;perimeter=lifelinePerimeter;whiteSpace=wrap;html=1;container=0;collapsible=0;recursiveResize=0;outlineConnect=0;fillColor=#ffe6cc;strokeColor=#d79b00;" vertex="1" parent="1">
          <mxGeometry x="740.5" y="206" width="159" height="520" as="geometry" />
        </mxCell>
        <mxCell id="LSLZHL2r1kMPk4kIhxWc-52" value="doNoExecuteTaintingPass" style="shape=umlLifeline;perimeter=lifelinePerimeter;whiteSpace=wrap;html=1;container=0;collapsible=0;recursiveResize=0;outlineConnect=0;fillColor=#dae8fc;strokeColor=#6c8ebf;" vertex="1" parent="1">
          <mxGeometry x="925" y="206" width="150" height="520" as="geometry" />
        </mxCell>
        <mxCell id="LSLZHL2r1kMPk4kIhxWc-55" value="doNodeProcessingWorker" style="shape=umlLifeline;perimeter=lifelinePerimeter;whiteSpace=wrap;html=1;container=1;collapsible=0;recursiveResize=0;outlineConnect=0;fillColor=#f8cecc;strokeColor=#b85450;" vertex="1" parent="1">
          <mxGeometry x="555" y="206" width="170" height="534" as="geometry" />
        </mxCell>
        <mxCell id="LSLZHL2r1kMPk4kIhxWc-60" value="" style="html=1;points=[];perimeter=orthogonalPerimeter;fillColor=#f8cecc;strokeColor=#b85450;" vertex="1" parent="1">
          <mxGeometry x="635" y="280" width="10" height="220" as="geometry" />
        </mxCell>
        <mxCell id="LSLZHL2r1kMPk4kIhxWc-61" value="" style="html=1;points=[];perimeter=orthogonalPerimeter;fillColor=#ffe6cc;strokeColor=#d79b00;" vertex="1" parent="1">
          <mxGeometry x="815" y="516" width="10" height="134" as="geometry" />
        </mxCell>
        <mxCell id="LSLZHL2r1kMPk4kIhxWc-64" value="" style="endArrow=classic;html=1;rounded=0;" edge="1" parent="1">
          <mxGeometry width="50" height="50" relative="1" as="geometry">
            <mxPoint x="1210" y="320" as="sourcePoint" />
            <mxPoint x="1210" y="365" as="targetPoint" />
            <Array as="points">
              <mxPoint x="1250" y="320" />
              <mxPoint x="1250" y="365" />
            </Array>
          </mxGeometry>
        </mxCell>
        <mxCell id="LSLZHL2r1kMPk4kIhxWc-65" value="list nodes" style="edgeLabel;html=1;align=center;verticalAlign=middle;resizable=0;points=[];" vertex="1" connectable="0" parent="LSLZHL2r1kMPk4kIhxWc-64">
          <mxGeometry x="-0.1863" y="1" relative="1" as="geometry">
            <mxPoint y="9" as="offset" />
          </mxGeometry>
        </mxCell>
        <mxCell id="LSLZHL2r1kMPk4kIhxWc-67" value="" style="endArrow=classic;html=1;rounded=0;" edge="1" parent="1">
          <mxGeometry width="50" height="50" relative="1" as="geometry">
            <mxPoint x="825" y="560" as="sourcePoint" />
            <mxPoint x="825" y="605" as="targetPoint" />
            <Array as="points">
              <mxPoint x="865" y="560" />
              <mxPoint x="865" y="605" />
            </Array>
          </mxGeometry>
        </mxCell>
        <mxCell id="LSLZHL2r1kMPk4kIhxWc-68" value="Process Pod" style="edgeLabel;html=1;align=center;verticalAlign=middle;resizable=0;points=[];" vertex="1" connectable="0" parent="LSLZHL2r1kMPk4kIhxWc-67">
          <mxGeometry x="-0.1863" y="1" relative="1" as="geometry">
            <mxPoint as="offset" />
          </mxGeometry>
        </mxCell>
        <mxCell id="LSLZHL2r1kMPk4kIhxWc-70" value="" style="endArrow=classic;html=1;rounded=0;" edge="1" parent="1">
          <mxGeometry width="50" height="50" relative="1" as="geometry">
            <mxPoint x="645" y="340" as="sourcePoint" />
            <mxPoint x="645" y="385" as="targetPoint" />
            <Array as="points">
              <mxPoint x="685" y="340" />
              <mxPoint x="685" y="385" />
            </Array>
          </mxGeometry>
        </mxCell>
        <mxCell id="LSLZHL2r1kMPk4kIhxWc-71" value="NoSchedule&lt;div&gt;Taint&lt;/div&gt;" style="edgeLabel;html=1;align=center;verticalAlign=middle;resizable=0;points=[];" vertex="1" connectable="0" parent="LSLZHL2r1kMPk4kIhxWc-70">
          <mxGeometry x="-0.1863" y="1" relative="1" as="geometry">
            <mxPoint y="9" as="offset" />
          </mxGeometry>
        </mxCell>
        <mxCell id="LSLZHL2r1kMPk4kIhxWc-72" value="" style="endArrow=classic;html=1;rounded=0;" edge="1" parent="1">
          <mxGeometry width="50" height="50" relative="1" as="geometry">
            <mxPoint x="645" y="410" as="sourcePoint" />
            <mxPoint x="645" y="455" as="targetPoint" />
            <Array as="points">
              <mxPoint x="685" y="410" />
              <mxPoint x="685" y="455" />
            </Array>
          </mxGeometry>
        </mxCell>
        <mxCell id="LSLZHL2r1kMPk4kIhxWc-73" value="Reconcile&lt;div&gt;NodeLabels&lt;/div&gt;" style="edgeLabel;html=1;align=center;verticalAlign=middle;resizable=0;points=[];" vertex="1" connectable="0" parent="LSLZHL2r1kMPk4kIhxWc-72">
          <mxGeometry x="-0.1863" y="1" relative="1" as="geometry">
            <mxPoint y="9" as="offset" />
          </mxGeometry>
        </mxCell>
        <mxCell id="LSLZHL2r1kMPk4kIhxWc-74" value="" style="html=1;verticalAlign=bottom;endArrow=block;entryX=0.114;entryY=0.182;rounded=0;entryDx=0;entryDy=0;entryPerimeter=0;exitX=0.171;exitY=0.149;exitDx=0;exitDy=0;exitPerimeter=0;" edge="1" parent="1" target="LSLZHL2r1kMPk4kIhxWc-60">
          <mxGeometry relative="1" as="geometry">
            <mxPoint x="450" y="320" as="sourcePoint" />
            <mxPoint x="662" y="320" as="targetPoint" />
          </mxGeometry>
        </mxCell>
        <mxCell id="LSLZHL2r1kMPk4kIhxWc-75" value="Pod Update" style="text;html=1;align=center;verticalAlign=middle;resizable=0;points=[];autosize=1;strokeColor=none;fillColor=none;" vertex="1" parent="1">
          <mxGeometry x="320" y="290" width="90" height="30" as="geometry" />
        </mxCell>
        <mxCell id="LSLZHL2r1kMPk4kIhxWc-76" value="Node Update" style="text;html=1;align=center;verticalAlign=middle;resizable=0;points=[];autosize=1;strokeColor=none;fillColor=none;" vertex="1" parent="1">
          <mxGeometry x="450" y="290" width="90" height="30" as="geometry" />
        </mxCell>
        <mxCell id="LSLZHL2r1kMPk4kIhxWc-77" value="" style="html=1;verticalAlign=bottom;endArrow=block;rounded=0;exitX=0.171;exitY=0.149;exitDx=0;exitDy=0;exitPerimeter=0;entryX=0.114;entryY=0.188;entryDx=0;entryDy=0;entryPerimeter=0;" edge="1" parent="1" target="LSLZHL2r1kMPk4kIhxWc-61">
          <mxGeometry relative="1" as="geometry">
            <mxPoint x="450" y="540" as="sourcePoint" />
            <mxPoint x="770" y="542" as="targetPoint" />
          </mxGeometry>
        </mxCell>
        <mxCell id="LSLZHL2r1kMPk4kIhxWc-78" value="Pod Update" style="text;html=1;align=center;verticalAlign=middle;resizable=0;points=[];autosize=1;strokeColor=none;fillColor=none;" vertex="1" parent="1">
          <mxGeometry x="450" y="510" width="90" height="30" as="geometry" />
        </mxCell>
        <mxCell id="LSLZHL2r1kMPk4kIhxWc-53" value="" style="html=1;points=[];perimeter=orthogonalPerimeter;fillColor=#dae8fc;strokeColor=#6c8ebf;" vertex="1" parent="1">
          <mxGeometry x="995" y="640" width="10" height="90" as="geometry" />
        </mxCell>
        <mxCell id="LSLZHL2r1kMPk4kIhxWc-80" value="doNoExecuteTaintingPass" style="shape=umlLifeline;perimeter=lifelinePerimeter;whiteSpace=wrap;html=1;container=0;collapsible=0;recursiveResize=0;outlineConnect=0;fillColor=#d5e8d4;strokeColor=#82b366;" vertex="1" parent="1">
          <mxGeometry x="1130" y="206" width="150" height="520" as="geometry" />
        </mxCell>
        <mxCell id="LSLZHL2r1kMPk4kIhxWc-81" value="" style="html=1;points=[];perimeter=orthogonalPerimeter;fillColor=#d5e8d4;strokeColor=#82b366;" vertex="1" parent="1">
          <mxGeometry x="1200" y="295" width="10" height="355" as="geometry" />
        </mxCell>
        <mxCell id="LSLZHL2r1kMPk4kIhxWc-82" value="" style="endArrow=classic;html=1;rounded=0;" edge="1" parent="1">
          <mxGeometry width="50" height="50" relative="1" as="geometry">
            <mxPoint x="1210" y="428.5" as="sourcePoint" />
            <mxPoint x="1210" y="473.5" as="targetPoint" />
            <Array as="points">
              <mxPoint x="1250" y="428.5" />
              <mxPoint x="1250" y="473.5" />
            </Array>
          </mxGeometry>
        </mxCell>
        <mxCell id="LSLZHL2r1kMPk4kIhxWc-83" value="update node" style="edgeLabel;html=1;align=center;verticalAlign=middle;resizable=0;points=[];" vertex="1" connectable="0" parent="LSLZHL2r1kMPk4kIhxWc-82">
          <mxGeometry x="-0.1863" y="1" relative="1" as="geometry">
            <mxPoint y="12" as="offset" />
          </mxGeometry>
        </mxCell>
        <mxCell id="LSLZHL2r1kMPk4kIhxWc-84" value="" style="endArrow=classic;html=1;rounded=0;exitX=0.014;exitY=0.375;exitDx=0;exitDy=0;exitPerimeter=0;entryX=0.071;entryY=0.502;entryDx=0;entryDy=0;entryPerimeter=0;" edge="1" parent="1">
          <mxGeometry width="50" height="50" relative="1" as="geometry">
            <mxPoint x="1199.4299999999998" y="516.005" as="sourcePoint" />
            <mxPoint x="1200" y="561.09" as="targetPoint" />
            <Array as="points">
              <mxPoint x="1139.29" y="516.38" />
              <mxPoint x="1139.29" y="561.38" />
            </Array>
          </mxGeometry>
        </mxCell>
        <mxCell id="LSLZHL2r1kMPk4kIhxWc-85" value="handle disruption" style="edgeLabel;html=1;align=center;verticalAlign=middle;resizable=0;points=[];" vertex="1" connectable="0" parent="LSLZHL2r1kMPk4kIhxWc-84">
          <mxGeometry x="-0.1863" y="1" relative="1" as="geometry">
            <mxPoint y="16" as="offset" />
          </mxGeometry>
        </mxCell>
        <mxCell id="LSLZHL2r1kMPk4kIhxWc-86" value="" style="html=1;verticalAlign=bottom;endArrow=block;rounded=0;exitX=0.171;exitY=0.149;exitDx=0;exitDy=0;exitPerimeter=0;entryX=-0.171;entryY=0.222;entryDx=0;entryDy=0;entryPerimeter=0;" edge="1" parent="1" target="LSLZHL2r1kMPk4kIhxWc-53">
          <mxGeometry relative="1" as="geometry">
            <mxPoint x="450" y="660" as="sourcePoint" />
            <mxPoint x="930" y="660" as="targetPoint" />
          </mxGeometry>
        </mxCell>
        <mxCell id="LSLZHL2r1kMPk4kIhxWc-87" value="" style="endArrow=classic;html=1;rounded=0;" edge="1" parent="1">
          <mxGeometry width="50" height="50" relative="1" as="geometry">
            <mxPoint x="1005" y="670" as="sourcePoint" />
            <mxPoint x="1005" y="715" as="targetPoint" />
            <Array as="points">
              <mxPoint x="1045" y="670" />
              <mxPoint x="1045" y="715" />
            </Array>
          </mxGeometry>
        </mxCell>
        <mxCell id="LSLZHL2r1kMPk4kIhxWc-88" value="NoExecute&lt;div&gt;Taint&lt;/div&gt;" style="edgeLabel;html=1;align=center;verticalAlign=middle;resizable=0;points=[];" vertex="1" connectable="0" parent="LSLZHL2r1kMPk4kIhxWc-87">
          <mxGeometry x="-0.1863" y="1" relative="1" as="geometry">
            <mxPoint y="8" as="offset" />
          </mxGeometry>
        </mxCell>
        <mxCell id="LSLZHL2r1kMPk4kIhxWc-89" value="Node Update" style="text;html=1;align=center;verticalAlign=middle;resizable=0;points=[];autosize=1;strokeColor=none;fillColor=none;" vertex="1" parent="1">
          <mxGeometry x="450" y="630" width="90" height="30" as="geometry" />
        </mxCell>
      </root>
    </mxGraphModel>
  </diagram>
</mxfile>
